# xmcd
#
# Track frame offsets:
#	150
#	11725
#	22581
#	32445
#	45645
#	57760
#	68840
#	80822
#	96150
#	109822
#	121595
#	133807
#	144875
#	157530
#	168235
#	185025
#	200107
#	212910
#	226112
#	242197
#	255605
#	267312
#	278280
#	300255
#	315802
#
# Disc length: 4435 seconds
#
# Revision: 8
# Processed by: cddbd v1.5.2PL0 Copyright (c) Steve Scherf et al.
# Submitted via: audiograbber 1.83.01
#
DISCID=3e115119
DTITLE=Conway Twitty - Silver Anniversary Collection
DYEAR=1990
DGENRE=Country
TTITLE0=Guess My Eyes Were Bigger Than My Heart
TTITLE1=Look Into My Teardrops
TTITLE2=I Don't Want To Be With Me
TTITLE3=The Image Of Me
TTITLE4=To See My Angel Cry
TTITLE5=Hello Darlin'
TTITLE6=I Can't See Me Without You
TTITLE7=(Lost Her Love) On Our Last Date
TTITLE8=You've Never Been This Far Before
TTITLE9=I'm Not Through Loving You Yet
TTITLE10=Linda On My Mind
TTITLE11=(I Can't Believe) She Gives It All To Me
TTITLE12=I've Already Loved You In My Mind
TTITLE13=Boogie Grass Band
TTITLE14=Don't Take It Away
TTITLE15=I'd Just Love To Lay You Down
TTITLE16=Tight Fittin' Jeans
TTITLE17=Slow Hand
TTITLE18=The Rose
TTITLE19=I Don't Know A Thing About Love
TTITLE20=Don't Call Him A Cowboy
TTITLE21=Desperado Love
TTITLE22=That's My Job
TTITLE23=Goodbye Time
TTITLE24=She's Got A Single Thing In Mind
EXTD=
EXTT0=
EXTT1=
EXTT2=
EXTT3=
EXTT4=
EXTT5=
EXTT6=
EXTT7=
EXTT8=
EXTT9=
EXTT10=
EXTT11=
EXTT12=
EXTT13=
EXTT14=
EXTT15=
EXTT16=
EXTT17=
EXTT18=
EXTT19=
EXTT20=
EXTT21=
EXTT22=
EXTT23=
EXTT24=
PLAYORDER=
